<svg width="30" height="30" viewBox="0 0 30 30" fill="none" xmlns="http://www.w3.org/2000/svg">
<path d="M20.4545 8.63636C19.9525 8.63636 19.5455 9.04338 19.5455 9.54545C19.5455 10.0475 19.9525 10.4545 20.4545 10.4545C20.9566 10.4545 21.3636 10.0475 21.3636 9.54545C21.3636 9.04338 20.9566 8.63636 20.4545 8.63636Z" fill="white"/>
<path fill-rule="evenodd" clip-rule="evenodd" d="M15 20.4545C18.0125 20.4545 20.4545 18.0125 20.4545 15C20.4545 11.9875 18.0125 9.54545 15 9.54545C11.9875 9.54545 9.54545 11.9875 9.54545 15C9.54545 18.0125 11.9875 20.4545 15 20.4545ZM15 18.6364C17.0083 18.6364 18.6364 17.0083 18.6364 15C18.6364 12.9917 17.0083 11.3636 15 11.3636C12.9917 11.3636 11.3636 12.9917 11.3636 15C11.3636 17.0083 12.9917 18.6364 15 18.6364Z" fill="white"/>
<path fill-rule="evenodd" clip-rule="evenodd" d="M5 13.7273C5 10.6724 5 9.14503 5.59451 7.97824C6.11745 6.95189 6.95189 6.11745 7.97824 5.59451C9.14503 5 10.6724 5 13.7273 5H16.2727C19.3275 5 20.855 5 22.0217 5.59451C23.0481 6.11745 23.8825 6.95189 24.4055 7.97824C25 9.14503 25 10.6724 25 13.7273V16.2727C25 19.3275 25 20.855 24.4055 22.0217C23.8825 23.0481 23.0481 23.8825 22.0217 24.4055C20.855 25 19.3275 25 16.2727 25H13.7273C10.6724 25 9.14503 25 7.97824 24.4055C6.95189 23.8825 6.11745 23.0481 5.59451 22.0217C5 20.855 5 19.3275 5 16.2727V13.7273ZM13.7273 6.81818H16.2727C17.8302 6.81818 18.8888 6.8196 19.7072 6.88645C20.5044 6.95158 20.912 7.06963 21.1964 7.21452C21.8805 7.56315 22.4368 8.11945 22.7855 8.80367C22.9304 9.08804 23.0485 9.49567 23.1135 10.2928C23.1804 11.1111 23.1818 12.1699 23.1818 13.7273V16.2727C23.1818 17.8302 23.1804 18.8888 23.1135 19.7072C23.0485 20.5044 22.9304 20.912 22.7855 21.1964C22.4368 21.8805 21.8805 22.4368 21.1964 22.7855C20.912 22.9304 20.5044 23.0485 19.7072 23.1135C18.8888 23.1804 17.8302 23.1818 16.2727 23.1818H13.7273C12.1699 23.1818 11.1111 23.1804 10.2928 23.1135C9.49567 23.0485 9.08804 22.9304 8.80367 22.7855C8.11945 22.4368 7.56315 21.8805 7.21452 21.1964C7.06963 20.912 6.95158 20.5044 6.88645 19.7072C6.8196 18.8888 6.81818 17.8302 6.81818 16.2727V13.7273C6.81818 12.1699 6.8196 11.1111 6.88645 10.2928C6.95158 9.49567 7.06963 9.08804 7.21452 8.80367C7.56315 8.11945 8.11945 7.56315 8.80367 7.21452C9.08804 7.06963 9.49567 6.95158 10.2928 6.88645C11.1111 6.8196 12.1699 6.81818 13.7273 6.81818Z" fill="white"/>
</svg>
